<?xml version="1.0" standalone="no"?><!DOCTYPE svg PUBLIC "-//W3C//DTD SVG 1.1//EN" "http://www.w3.org/Graphics/SVG/1.1/DTD/svg11.dtd"><svg t="1489023129067" class="icon" style="" viewBox="0 0 1024 1024" version="1.1" xmlns="http://www.w3.org/2000/svg" p-id="5101" xmlns:xlink="http://www.w3.org/1999/xlink" width="200" height="200"><defs><style type="text/css"></style></defs><path d="M914.752 195.456 109.312 195.456C84.288 195.456 64 215.616 64 240.448c0 24.832 20.288 45.056 45.312 45.056l10.816 0 108.032 653.76C207.744 942.528 192.064 960 192.064 981.248c0 23.616 19.2 42.752 42.944 42.752l553.856 0c23.808 0 43.008-19.136 43.008-42.752 0-21.248-15.68-38.72-36.032-41.984l108.032-653.76 10.88 0C939.776 285.504 960 265.344 960 240.448 960 215.552 939.776 195.456 914.752 195.456zM375.936 873.28c-3.648 0.256-12.032-3.008-13.248-9.024l-60.096-505.6c-1.216-6.08 2.56-11.392 8.32-11.712L330.56 346.24C336.384 345.792 341.76 350.592 342.592 356.736l40.448 506.688C383.808 869.504 379.584 873.024 375.936 873.28zM522.56 863.36c-0.32 6.144-4.928 11.2-10.304 11.2s-10.048-5.056-10.304-11.2L487.36 356.032C487.04 349.824 493.888 344.832 502.464 344.832l19.584 0c8.576 0 15.36 5.056 15.104 11.2L522.56 863.36zM721.344 357.824l-60.096 505.536c-1.152 6.144-5.12 10.944-8.768 10.752-3.648-0.256-11.392-5.504-10.624-11.648l40.448-506.688c0.832-6.144 6.208-10.88 12.032-10.496l18.624 0.768C718.848 346.432 722.624 351.744 721.344 357.824zM935.232 167.616c-7.488-62.016-56.768-109.952-116.608-109.952L205.44 57.664c-59.904 0-109.184 47.936-116.672 109.952L935.232 167.616zM595.776 42.24c0-0.96 0.128-1.92 0.128-2.88C595.904 17.6 582.4 0 565.696 0L458.304 0C441.6 0 428.096 17.6 428.096 39.36c0 0.96 0.128 1.92 0.192 2.88L595.776 42.24z" p-id="5102"></path></svg>