<?xml version="1.0" standalone="no"?><!DOCTYPE svg PUBLIC "-//W3C//DTD SVG 1.1//EN" "http://www.w3.org/Graphics/SVG/1.1/DTD/svg11.dtd"><svg t="1489022256067" class="icon" style="" viewBox="0 0 1036 1024" version="1.1" xmlns="http://www.w3.org/2000/svg" p-id="1430" xmlns:xlink="http://www.w3.org/1999/xlink" width="202.34375" height="200"><defs><style type="text/css"></style></defs><path d="M750.806921 885.72268c-15.293311-54.748928-30.373775-108.733447-45.613874-163.293063-131.35363 52.439326-261.496689 50.154283-391.242705-7.133468-15.808034 56.589856-31.56695 113.003703-47.599088 170.396855-10.744715-3.857864-21.070898-7.566326-31.807427-11.42112 6.013971-21.581528 11.864212-42.590004 17.721617-63.597457 9.839089-35.286668 19.643386-70.584592 29.585829-105.842607 0.981351-3.481288 1.203408-5.735631-2.602268-7.850805-54.682413-30.382984-102.443184-69.559239-145.338133-114.877377-1.161453-1.226944-2.443655-2.339278-3.9121-3.735068-33.353642 43.367717-66.524113 86.498026-99.929943 129.935328-8.900717-7.037277-17.264199-13.649881-26.183336-20.701484 34.660404-45.108361 69.093635-89.918939 103.274108-134.402059-13.446243-17.899672-27.27111-34.890648-39.501666-52.960189-13.922081-20.569478-26.533306-42.035372-39.424918-63.286372-2.076288-3.422959-2.650363-7.757684-4.417613-13.208836 9.875928 0 18.036795-0.508583 26.067702 0.292666 2.596128 0.258896 5.63944 3.51301 7.137561 6.15621 20.36891 35.941584 43.958164 69.641103 70.493517 101.253078 54.56371 65.00348 117.808126 119.286804 195.102536 155.768693 81.870636 38.642089 167.79868 51.979862 257.542634 39.652092 93.693916-12.870122 174.759209-53.420677 246.484787-113.803929 61.015655-51.365878 110.819968-112.172779 150.396335-181.370791 1.938142-3.38919 3.963265-4.736884 7.987928-4.745071 8.085142-0.016373 16.168238-0.856507 26.364461-1.487887-2.041496 5.219885-3.134387 9.193383-5.046946 12.722766-23.707958 43.74941-52.520167 83.949994-84.99172 121.580033-7.147794 8.283664-7.189749 8.234545-0.773619 17.126053 31.632441 43.833321 63.260789 87.669712 94.886067 131.508149 1.3743 1.904373 2.704598 3.840468 4.605901 6.544043-8.520047 7.169283-16.95516 14.267958-25.809829 21.719674-34.56933-47.901986-68.803016-95.338369-103.5811-143.527904-45.644573 46.045709-96.213295 84.948741-154.535609 114.5008 15.440667 55.370075 30.839379 110.591771 46.466288 166.631088C772.107039 878.048907 761.767554 881.773741 750.806921 885.72268z" p-id="1431" fill="#707070"></path></svg>