<?xml version="1.0" standalone="no"?><!DOCTYPE svg PUBLIC "-//W3C//DTD SVG 1.1//EN" "http://www.w3.org/Graphics/SVG/1.1/DTD/svg11.dtd"><svg t="1489022552731" class="icon" style="" viewBox="0 0 1024 1024" version="1.1" xmlns="http://www.w3.org/2000/svg" p-id="2246" xmlns:xlink="http://www.w3.org/1999/xlink" width="200" height="200"><defs><style type="text/css"></style></defs><path d="M512 242.914263c-163.948606 0-291.748202 102.614626-448.484848 268.987475C198.556444 654.156283 311.875232 781.08703 512 781.08703c200.123475 0 347.209697-160.682667 448.484848-266.177939C856.816485 391.328323 709.71604 242.914263 512 242.914263zM512 751.186747c-177.657535 0-284.900848-110.18602-407.255919-239.255273C250.325333 360.129939 366.082586 272.81196 512 272.81196c172.750869 0 307.762424 124.57503 408.220444 240.898586C821.427717 616.722101 687.670303 751.186747 512 751.186747z" p-id="2247" fill="#2c2c2c"></path><path d="M512 332.625455c-98.923313 0-179.393939 80.470626-179.393939 179.378424 0 98.910384 80.470626 179.38101 179.393939 179.38101s179.393939-80.470626 179.393939-179.38101C691.393939 413.096081 610.923313 332.625455 512 332.625455zM512 661.484606c-82.425535 0-149.494949-67.055192-149.494949-149.48202S429.574465 362.523152 512 362.523152s149.494949 67.053899 149.494949 149.479434S594.426828 661.484606 512 661.484606z" p-id="2248" fill="#2c2c2c"></path><path d="M512 407.359354c-57.69697 0-104.645818 46.948848-104.645818 104.644525s46.948848 104.647111 104.645818 104.647111c57.694384 0 104.645818-46.952727 104.645818-104.647111S569.695677 407.359354 512 407.359354zM512 586.750707c-41.212121 0-74.748121-33.532121-74.748121-74.748121 0-41.212121 33.536-74.746828 74.748121-74.746828s74.746828 33.534707 74.746828 74.746828C586.746828 553.218586 553.212121 586.750707 512 586.750707z" p-id="2249" fill="#2c2c2c"></path></svg>