<?xml version="1.0" standalone="no"?><!DOCTYPE svg PUBLIC "-//W3C//DTD SVG 1.1//EN" "http://www.w3.org/Graphics/SVG/1.1/DTD/svg11.dtd"><svg t="1489023415327" class="icon" style="" viewBox="0 0 1024 1024" version="1.1" xmlns="http://www.w3.org/2000/svg" p-id="1826" xmlns:xlink="http://www.w3.org/1999/xlink" width="200" height="200"><defs><style type="text/css"></style></defs><path d="M768 48c-111.312 0-208.08 56.432-256 138.784C464.08 104.432 367.312 48 256 48 87.936 48 0 192.88 0 336c0 334.272 475.296 623.296 495.536 635.44C500.608 974.48 506.304 976 512 976s11.392-1.52 16.464-4.56C548.704 959.296 1024 670.272 1024 336 1024 192.88 936.064 48 768 48zM511.984 906.176C429.28 852.816 64 602 64 336 64 228.112 124.08 112 256 112c107.728 0 224 73.408 224 192 0 17.664 14.336 32 32 32s32-14.336 32-32c0-118.592 116.272-192 224-192 131.92 0 192 116.112 192 224C960 601.68 594.656 852.784 511.984 906.176z" p-id="1827"></path></svg>