<?xml version="1.0" standalone="no"?><!DOCTYPE svg PUBLIC "-//W3C//DTD SVG 1.1//EN" "http://www.w3.org/Graphics/SVG/1.1/DTD/svg11.dtd"><svg t="1489024064313" class="icon" style="" viewBox="0 0 1024 1024" version="1.1" xmlns="http://www.w3.org/2000/svg" p-id="20393" xmlns:xlink="http://www.w3.org/1999/xlink" width="200" height="200"><defs><style type="text/css"></style></defs><path d="M952.560327 799.242449c-64.574694-54.794449-178.364082-128.522449-222.793143-137.947429l-3.155592-0.668735-3.197388 0.459755c-25.223837 3.719837-40.500245 20.58449-54.000327 35.422041-17.679673 19.518694-29.298939 30.364735-53.895837 26.937469-7.502367-1.065796-39.622531-14.12702-141.688163-135.293388l-43.509551-52.850939c-101.793959-126.223673-108.230531-160.454531-107.749878-167.956898 1.588245-24.78498 14.712163-33.415837 37.78351-46.539755 17.51249-9.968327 37.365551-21.253224 46.247184-44.826122l1.12849-2.96751-0.020898-3.197388c-0.229878-44.84702-49.987918-169.900408-90.21649-241.831184C313.082776 17.51249 300.397714 0 265.393633 0c-71.053061 0-195.395918 71.011265-208.728816 155.146449-18.912653 119.264653 61.920653 302.414367 216.189388 489.994449l56.988735 69.214041c154.268735 187.517388 319.27902 303.250286 441.469388 309.540571L776.578612 1024l0.020898 0c80.331755 0 168.458449-95.106612 188.687673-159.221551C978.160327 823.943837 961.880816 805.470041 952.560327 799.242449z" p-id="20394"></path></svg>